<svg xmlns="http://www.w3.org/2000/svg" version="1.1" xmlns:xlink="http://www.w3.org/1999/xlink" xmlns:svgjs="http://svgjs.dev/svgjs" width="2000" height="1247" viewBox="0 0 2000 1247"><g transform="matrix(1,0,0,1,-1.2121212121212466,0.504858299595071)"><svg viewBox="0 0 396 247" data-background-color="#000000" preserveAspectRatio="xMidYMid meet" height="1247" width="2000" xmlns="http://www.w3.org/2000/svg" xmlns:xlink="http://www.w3.org/1999/xlink"><g id="tight-bounds" transform="matrix(1,0,0,1,0.2400000000000091,-0.09999999999999432)"><svg viewBox="0 0 395.52 247.2" height="247.2" width="395.52"><rect width="395.52" height="247.2" fill="url(#ad762979-6ed1-4bbe-9044-764d66aa3d20)" mask="url(#f3a7154c-699f-4659-bca5-c2a0f21b1269)" data-fill-palette-color="tertiary"></rect><g><svg></svg></g><g><svg viewBox="0 0 395.52 247.2" height="247.2" width="395.52"><g transform="matrix(1,0,0,1,149.84474276206322,47.215199999999996)"><svg viewBox="0 0 95.83051447587354 152.7696" height="152.7696" width="95.83051447587354"><g><svg viewBox="0 0 95.83051447587354 152.7696" height="152.7696" width="95.83051447587354"><g><svg viewBox="0 0 95.83051447587354 152.7696" height="152.7696" width="95.83051447587354"><g><svg viewBox="0 0 95.83051447587354 152.7696" height="152.7696" width="95.83051447587354"><g id="textblocktransform"><svg viewBox="0 0 95.83051447587354 152.7696" height="152.7696" width="95.83051447587354" id="textblock"><g><svg viewBox="0 0 95.83051447587354 152.7696" height="152.7696" width="95.83051447587354"><g transform="matrix(1,0,0,1,0,0)"><svg width="95.83051447587354" viewBox="0.7 -29.65 18.85 30.049999999999997" height="152.7696" data-palette-color="url(#094bf916-29e4-47e9-a83d-c092ad2bf658)"></svg></g></svg></g></svg></g></svg></g></svg></g></svg></g></svg></g><path d="M63.374 41.215L63.374 0 310.574 0 310.574 247.2 63.374 247.2 63.374 205.985 77.151 205.985 77.151 233.423 296.797 233.423 296.797 13.777 77.151 13.777 77.151 41.215Z" fill="url(#ad762979-6ed1-4bbe-9044-764d66aa3d20)" stroke="transparent" data-fill-palette-color="tertiary"></path></svg></g><defs></defs><mask id="829655f4-f98a-4365-b0fb-e80933823c95"><g id="SvgjsG1546"><svg viewBox="0 0 395.52 247.2" height="247.2" width="395.52"><g><svg></svg></g><g><svg viewBox="0 0 395.52 247.2" height="247.2" width="395.52"><g transform="matrix(1,0,0,1,149.84474276206322,47.215199999999996)"><svg viewBox="0 0 95.83051447587354 152.7696" height="152.7696" width="95.83051447587354"><g><svg viewBox="0 0 95.83051447587354 152.7696" height="152.7696" width="95.83051447587354"><g><svg viewBox="0 0 95.83051447587354 152.7696" height="152.7696" width="95.83051447587354"><g><svg viewBox="0 0 95.83051447587354 152.7696" height="152.7696" width="95.83051447587354"><g id="SvgjsG1545"><svg viewBox="0 0 95.83051447587354 152.7696" height="152.7696" width="95.83051447587354" id="SvgjsSvg1544"><g><svg viewBox="0 0 95.83051447587354 152.7696" height="152.7696" width="95.83051447587354"><g transform="matrix(1,0,0,1,0,0)"><svg width="95.83051447587354" viewBox="0.7 -29.65 18.85 30.049999999999997" height="152.7696" data-palette-color="url(#094bf916-29e4-47e9-a83d-c092ad2bf658)"><path d="M9.8 0.4L9.8 0.4Q6.7 0.4 4.67-0.38 2.65-1.15 1.68-3.08 0.7-5 0.7-8.45L0.7-8.45 0.7-9.4 9.05-9.4 9.05-7.2Q9.05-5.5 9.25-4.78 9.45-4.05 10.1-4.05L10.1-4.05Q10.7-4.05 10.9-4.55L10.9-4.55Q11.1-5 11.1-6.8L11.1-6.8Q11.1-8.45 10.55-9.35 10-10.25 8.83-10.88 7.65-11.5 5.75-12.3L5.75-12.3Q2.95-13.55 1.95-15.63 0.95-17.7 0.95-21.1L0.95-21.1Q0.95-24.3 1.83-26.18 2.7-28.05 4.7-28.85 6.7-29.65 10.1-29.65L10.1-29.65Q19.2-29.65 19.2-22.45L19.2-22.45 19.2-19.15 11.25-19.15 11.25-19.95Q11.25-20.95 11.23-21.75 11.2-22.55 11.15-23.05L11.15-23.05Q11-24.05 10.2-24.05L10.2-24.05Q9.55-24.05 9.38-23.25 9.2-22.45 9.2-21.35L9.2-21.35Q9.2-19.95 9.73-19.23 10.25-18.5 11.2-18.1 12.15-17.7 13.3-17.25L13.3-17.25Q15.65-16.4 17-15.48 18.35-14.55 18.95-12.98 19.55-11.4 19.55-8.55L19.55-8.55Q19.55-3.65 17-1.63 14.45 0.4 9.8 0.4ZM10.05-1.95L10.05-1.95Q10.6-1.95 11.28-2 11.95-2.05 12.35-2.15L12.35-2.15Q14.1-2.55 14.88-3.85 15.65-5.15 15.65-8L15.65-8Q15.65-10.4 14.73-11.83 13.8-13.25 11.8-13.95L11.8-13.95 10.25-14.5 8.8-15.2Q6.9-16.15 6.18-17.53 5.45-18.9 5.45-21.05L5.45-21.05Q5.45-23.6 6.08-24.88 6.7-26.15 8.4-26.5L8.4-26.5Q8.8-26.6 9.28-26.65 9.75-26.7 10.25-26.7L10.25-26.7Q11.15-26.7 11.8-26.55L11.8-26.55Q13.65-26.25 14.38-24.98 15.1-23.7 15.1-21.05L15.1-21.05 15.25-21.05Q15.4-23.9 14.63-25.15 13.85-26.4 11.8-26.7L11.8-26.7Q11.45-26.75 11.05-26.78 10.65-26.8 10.25-26.8L10.25-26.8Q9.15-26.8 8.4-26.65L8.4-26.65Q6.5-26.3 5.65-25.03 4.8-23.75 4.8-21.05L4.8-21.05Q4.8-16.6 8.7-15L8.7-15 10.2-14.4 11.7-13.75Q13.65-12.9 14.35-11.6 15.05-10.3 15.05-8L15.05-8Q15.05-5.3 14.48-3.98 13.9-2.65 12.3-2.3L12.3-2.3Q11.9-2.2 11.25-2.13 10.6-2.05 10.05-2.05L10.05-2.05Q9.65-2.05 9.03-2.1 8.4-2.15 8.05-2.25L8.05-2.25Q6.25-2.6 5.58-3.9 4.9-5.2 4.9-8.05L4.9-8.05 4.75-8.05Q4.6-5.05 5.33-3.73 6.05-2.4 8-2.1L8-2.1Q8.35-2.05 9-2 9.65-1.95 10.05-1.95Z" opacity="1" transform="matrix(1,0,0,1,0,0)" fill="white" class="wordmark-text-0" id="SvgjsPath1543"></path></svg></g></svg></g></svg></g></svg></g></svg></g></svg></g></svg></g><path d="M63.374 41.215L63.374 0 310.574 0 310.574 247.2 63.374 247.2 63.374 205.985 77.151 205.985 77.151 233.423 296.797 233.423 296.797 13.777 77.151 13.777 77.151 41.215Z" fill="black" stroke="transparent"></path></svg></g><defs><mask></mask></defs></svg><rect width="395.52" height="247.2" fill="black" stroke="none" visibility="hidden"></rect></g></mask><linearGradient x1="0" x2="1" y1="0.578" y2="0.595" id="094bf916-29e4-47e9-a83d-c092ad2bf658"><stop stop-color="#6ee2f5" offset="0"></stop><stop stop-color="#6454f0" offset="1"></stop></linearGradient><rect width="395.52" height="247.2" fill="url(#094bf916-29e4-47e9-a83d-c092ad2bf658)" mask="url(#829655f4-f98a-4365-b0fb-e80933823c95)" data-fill-palette-color="primary"></rect><mask id="f3a7154c-699f-4659-bca5-c2a0f21b1269"><g id="SvgjsG1569"><svg viewBox="0 0 395.52 247.2" height="247.2" width="395.52"><g><svg></svg></g><g><svg viewBox="0 0 395.52 247.2" height="247.2" width="395.52"><g transform="matrix(1,0,0,1,149.84474276206322,47.215199999999996)"><svg viewBox="0 0 95.83051447587354 152.7696" height="152.7696" width="95.83051447587354"><g><svg viewBox="0 0 95.83051447587354 152.7696" height="152.7696" width="95.83051447587354"><g><svg viewBox="0 0 95.83051447587354 152.7696" height="152.7696" width="95.83051447587354"><g><svg viewBox="0 0 95.83051447587354 152.7696" height="152.7696" width="95.83051447587354"><g id="SvgjsG1568"><svg viewBox="0 0 95.83051447587354 152.7696" height="152.7696" width="95.83051447587354" id="SvgjsSvg1567"><g><svg viewBox="0 0 95.83051447587354 152.7696" height="152.7696" width="95.83051447587354"><g transform="matrix(1,0,0,1,0,0)"><svg width="95.83051447587354" viewBox="0.7 -29.65 18.85 30.049999999999997" height="152.7696" data-palette-color="url(#094bf916-29e4-47e9-a83d-c092ad2bf658)"></svg></g></svg></g></svg></g></svg></g></svg></g></svg></g></svg></g><path d="M63.374 41.215L63.374 0 310.574 0 310.574 247.2 63.374 247.2 63.374 205.985 77.151 205.985 77.151 233.423 296.797 233.423 296.797 13.777 77.151 13.777 77.151 41.215Z" fill="white" stroke="transparent"></path></svg></g><defs><mask></mask></defs><mask><g id="SvgjsG1566"><svg viewBox="0 0 395.52 247.2" height="247.2" width="395.52"><g><svg></svg></g><g><svg viewBox="0 0 395.52 247.2" height="247.2" width="395.52"><g transform="matrix(1,0,0,1,149.84474276206322,47.215199999999996)"><svg viewBox="0 0 95.83051447587354 152.7696" height="152.7696" width="95.83051447587354"><g><svg viewBox="0 0 95.83051447587354 152.7696" height="152.7696" width="95.83051447587354"><g><svg viewBox="0 0 95.83051447587354 152.7696" height="152.7696" width="95.83051447587354"><g><svg viewBox="0 0 95.83051447587354 152.7696" height="152.7696" width="95.83051447587354"><g id="SvgjsG1565"><svg viewBox="0 0 95.83051447587354 152.7696" height="152.7696" width="95.83051447587354" id="SvgjsSvg1564"><g><svg viewBox="0 0 95.83051447587354 152.7696" height="152.7696" width="95.83051447587354"><g transform="matrix(1,0,0,1,0,0)"><svg width="95.83051447587354" viewBox="0.7 -29.65 18.85 30.049999999999997" height="152.7696" data-palette-color="url(#094bf916-29e4-47e9-a83d-c092ad2bf658)"><path d="M9.8 0.4L9.8 0.4Q6.7 0.4 4.67-0.38 2.65-1.15 1.68-3.08 0.7-5 0.7-8.45L0.7-8.45 0.7-9.4 9.05-9.4 9.05-7.2Q9.05-5.5 9.25-4.78 9.45-4.05 10.1-4.05L10.1-4.05Q10.7-4.05 10.9-4.55L10.9-4.55Q11.1-5 11.1-6.8L11.1-6.8Q11.1-8.45 10.55-9.35 10-10.25 8.83-10.88 7.65-11.5 5.75-12.3L5.75-12.3Q2.95-13.55 1.95-15.63 0.95-17.7 0.95-21.1L0.95-21.1Q0.95-24.3 1.83-26.18 2.7-28.05 4.7-28.85 6.7-29.65 10.1-29.65L10.1-29.65Q19.2-29.65 19.2-22.45L19.2-22.45 19.2-19.15 11.25-19.15 11.25-19.95Q11.25-20.95 11.23-21.75 11.2-22.55 11.15-23.05L11.15-23.05Q11-24.05 10.2-24.05L10.2-24.05Q9.55-24.05 9.38-23.25 9.2-22.45 9.2-21.35L9.2-21.35Q9.2-19.95 9.73-19.23 10.25-18.5 11.2-18.1 12.15-17.7 13.3-17.25L13.3-17.25Q15.65-16.4 17-15.48 18.35-14.55 18.95-12.98 19.55-11.4 19.55-8.55L19.55-8.55Q19.55-3.65 17-1.63 14.45 0.4 9.8 0.4ZM10.05-1.95L10.05-1.95Q10.6-1.95 11.28-2 11.95-2.05 12.35-2.15L12.35-2.15Q14.1-2.55 14.88-3.85 15.65-5.15 15.65-8L15.65-8Q15.65-10.4 14.73-11.83 13.8-13.25 11.8-13.95L11.8-13.95 10.25-14.5 8.8-15.2Q6.9-16.15 6.18-17.53 5.45-18.9 5.45-21.05L5.45-21.05Q5.45-23.6 6.08-24.88 6.7-26.15 8.4-26.5L8.4-26.5Q8.8-26.6 9.28-26.65 9.75-26.7 10.25-26.7L10.25-26.7Q11.15-26.7 11.8-26.55L11.8-26.55Q13.65-26.25 14.38-24.98 15.1-23.7 15.1-21.05L15.1-21.05 15.25-21.05Q15.4-23.9 14.63-25.15 13.85-26.4 11.8-26.7L11.8-26.7Q11.45-26.75 11.05-26.78 10.65-26.8 10.25-26.8L10.25-26.8Q9.15-26.8 8.4-26.65L8.4-26.65Q6.5-26.3 5.65-25.03 4.8-23.75 4.8-21.05L4.8-21.05Q4.8-16.6 8.7-15L8.7-15 10.2-14.4 11.7-13.75Q13.65-12.9 14.35-11.6 15.05-10.3 15.05-8L15.05-8Q15.05-5.3 14.48-3.98 13.9-2.65 12.3-2.3L12.3-2.3Q11.9-2.2 11.25-2.13 10.6-2.05 10.05-2.05L10.05-2.05Q9.65-2.05 9.03-2.1 8.4-2.15 8.05-2.25L8.05-2.25Q6.25-2.6 5.58-3.9 4.9-5.2 4.9-8.05L4.9-8.05 4.75-8.05Q4.6-5.05 5.33-3.73 6.05-2.4 8-2.1L8-2.1Q8.35-2.05 9-2 9.65-1.95 10.05-1.95Z" opacity="1" transform="matrix(1,0,0,1,0,0)" fill="black" class="wordmark-text-0" id="SvgjsPath1563"></path></svg></g></svg></g></svg></g></svg></g></svg></g></svg></g></svg></g><path d="M63.374 41.215L63.374 0 310.574 0 310.574 247.2 63.374 247.2 63.374 205.985 77.151 205.985 77.151 233.423 296.797 233.423 296.797 13.777 77.151 13.777 77.151 41.215Z" fill="black" stroke="transparent"></path></svg></g><defs><mask></mask></defs></svg><rect width="395.52" height="247.2" fill="black" stroke="none" visibility="hidden"></rect></g></mask></svg><rect width="395.52" height="247.2" fill="black" stroke="none" visibility="hidden"></rect></g></mask><linearGradient x1="0" x2="1" y1="0.578" y2="0.595" id="ad762979-6ed1-4bbe-9044-764d66aa3d20"><stop stop-color="#6ee2f5" offset="0"></stop><stop stop-color="#6454f0" offset="1"></stop></linearGradient></svg><rect width="395.52" height="247.2" fill="none" stroke="none" visibility="hidden"></rect></g></svg></g></svg>